<svg aria-hidden="true" style="position:absolute;width:0;height:0;overflow:hidden" xmlns="http://www.w3.org/2000/svg">
  <defs>
    <symbol id="icon-comment" viewBox="0 0 32 32">
      <path d="M31 4c0-1.65-1.35-3-3-3H4C2.35 1 1 2.35 1 4v18c0 1.65 1.35 3 3 3h21l6 6V4z"/>
    </symbol>
    <symbol id="icon-heart" viewBox="0 0 37 32">
      <path d="M1.143 9.829a9.264 9.264 0 0 1 5.834-8.603 9.252 9.252 0 0 1 3.595-.655A10.27 10.27 0 0 1 18.287 4c.97-1.085 2.159-1.952 3.489-2.544s2.77-.893 4.226-.885a9.252 9.252 0 0 1 6.657 2.65 9.254 9.254 0 0 1 2.772 6.608c0 9.182-10.936 16.114-17.143 21.6-6.194-5.532-17.143-12.411-17.143-21.6z"/>
    </symbol>
    <symbol id="icon-squares" viewBox="0 0 32 32">
      <path d="M8.207 19.111a.992.992 0 0 1-.992.992H.993a.992.992 0 0 1-.992-.992v-6.222c0-.548.444-.992.992-.992h6.222c.548 0 .992.444.992.992v6.222zM32 19.111a.992.992 0 0 1-.992.992h-6.222a.992.992 0 0 1-.992-.992v-6.222c0-.548.444-.992.992-.992h6.222c.548 0 .992.444.992.992v6.222zM19.111.163h-6.223a.992.992 0 0 0-.992.993v6.222c0 .548.444.993.992.993h6.223a.992.992 0 0 0 .992-.993V1.156a.993.993 0 0 0-.992-.993zM7.215.163H.993A.993.993 0 0 0 0 1.156v6.222c0 .548.444.993.993.993h6.222a.993.993 0 0 0 .993-.993V1.156a.993.993 0 0 0-.993-.993zM31.007.163h-6.222a.993.993 0 0 0-.993.993v6.222c0 .548.444.993.993.993h6.222A.992.992 0 0 0 32 7.378V1.156a.993.993 0 0 0-.993-.993zM19.111 11.896h-6.223a.992.992 0 0 0-.992.993v6.222c0 .548.444.993.992.993h6.223a.992.992 0 0 0 .992-.993v-6.222a.992.992 0 0 0-.992-.993zM19.111 23.63h-6.223a.992.992 0 0 0-.992.993v6.222c0 .548.444.993.992.993h6.223a.992.992 0 0 0 .992-.993v-6.222a.992.992 0 0 0-.992-.993zM8.207 30.845a.992.992 0 0 1-.992.992H.993a.992.992 0 0 1-.992-.992v-6.222c0-.548.444-.992.992-.992h6.222c.548 0 .992.444.992.992v6.222zM32 30.845a.992.992 0 0 1-.992.992h-6.222a.992.992 0 0 1-.992-.992v-6.222c0-.548.444-.992.992-.992h6.222c.548 0 .992.444.992.992v6.222z"/>
    </symbol>
    <symbol id="icon-list" viewBox="0 0 35 32">
      <path d="M0 0h8.727v8.727H0V0zM0 11.636h8.727v8.727H0v-8.727zM0 23.273h8.727V32H0v-8.727zM13.091 14.545h21.818v2.909H13.091v-2.909zM13.091 26.182h21.818v2.909H13.091v-2.909zM13.091 2.909h21.818v2.909H13.091V2.909z"/>
    </symbol>
  </defs>
</svg>

